/* XPM */
static char*SS_Caution[]={
"20 20 10 1",
"g c #000000",
"b c #715704",
"e c #ffc508",
"h c #383c38",
"d c #4b7b82",
". c None",
"a c #303030",
"# c #585858",
"f c #9d7a05",
"c c #ce9f06",
".......#####........",
".....##aaaaaa#......",
"...##aabccccaa##....",
"..#aabceeeeecbaa#...",
"..#aceeeeffeecba#...",
".#abeeeefggceecba#..",
".#aceeeefggceeeca#..",
"#abeeeeecggeeeeeba#.",
"#aceeeeeegfeeeeeca#.",
"#aceeeeeegfeeeeeca#.",
"#aceeeeeefceeeeeca#.",
"#abeeeeeeceeeeeeba#.",
".#aceeeeeeeeeeeea#..",
".#aceeeeegheeeeca#..",
"..#aceeecgheeeba#...",
"..#aacceeeeecbaa#...",
"...##aacccccaa##....",
".....##aaaaa##......",
".......#####........",
"...................."};
