/* XPM */
static char * question_xpm[] = {
"16 16 159 2",
"  	c None",
". 	c #E71414",
"+ 	c #E71818",
"@ 	c #E82121",
"# 	c #E92929",
"$ 	c #EA3231",
"% 	c #EB3B3B",
"& 	c #EC4343",
"* 	c #ED4C4C",
"= 	c #EE5555",
"- 	c #EF5D5D",
"; 	c #EF6666",
"> 	c #F16F6F",
", 	c #F17878",
"' 	c #F28081",
") 	c #E71314",
"! 	c #E92121",
"~ 	c #EA3232",
"{ 	c #EC4344",
"] 	c #ED5555",
"^ 	c #EF5E5E",
"/ 	c #F06F6F",
"( 	c #F28181",
"_ 	c #F38989",
": 	c #E71718",
"< 	c #E82021",
"[ 	c #E9292A",
"} 	c #EB3B3A",
"| 	c #ED4D4D",
"1 	c #EE5D5E",
"2 	c #F17778",
"3 	c #F28180",
"4 	c #F38A89",
"5 	c #F49292",
"6 	c #E92020",
"7 	c #E92A2A",
"8 	c #EA3332",
"9 	c #B03232",
"0 	c #4E1919",
"a 	c #110606",
"b 	c #040101",
"c 	c #200E0E",
"d 	c #753535",
"e 	c #EA7474",
"f 	c #F3898A",
"g 	c #F49392",
"h 	c #F59B9B",
"i 	c #EA2A29",
"j 	c #EB3C3C",
"k 	c #EC4444",
"l 	c #000000",
"m 	c #603333",
"n 	c #F38A8A",
"o 	c #F49B9C",
"p 	c #F6A4A4",
"q 	c #EA3333",
"r 	c #EB3B3C",
"s 	c #381414",
"t 	c #9B3D3D",
"u 	c #D85D5D",
"v 	c #EA6C6C",
"w 	c #994C4C",
"x 	c #0E0808",
"y 	c #F39392",
"z 	c #F59C9C",
"A 	c #F7ADAD",
"B 	c #EA3233",
"C 	c #EC4D4C",
"D 	c #EE5556",
"E 	c #EF6767",
"F 	c #F17070",
"G 	c #F17979",
"H 	c #DB7475",
"I 	c #0F0909",
"J 	c #F6A5A5",
"K 	c #F7B6B6",
"L 	c #EC4545",
"M 	c #EF5F5F",
"N 	c #EF6768",
"O 	c #E47979",
"P 	c #3D2323",
"Q 	c #6B4444",
"R 	c #F6ADAD",
"S 	c #F7B6B5",
"T 	c #F8BEBF",
"U 	c #EB4444",
"V 	c #EE5656",
"W 	c #F06767",
"X 	c #F07070",
"Y 	c #DD7575",
"Z 	c #2A1818",
"` 	c #4B3030",
" .	c #EFA09F",
"..	c #F8B6B6",
"+.	c #F8BFBF",
"@.	c #F9C8C8",
"#.	c #ED4E4D",
"$.	c #EE5F5F",
"%.	c #F06868",
"&.	c #F2797A",
"*.	c #452727",
"=.	c #5F3D3D",
"-.	c #F4A3A2",
";.	c #F7AEAD",
">.	c #F9BFBF",
",.	c #F9C7C8",
"'.	c #FAD1D0",
").	c #EE5657",
"!.	c #F06867",
"~.	c #F07171",
"{.	c #F17A79",
"].	c #F28282",
"^.	c #F38B8B",
"/.	c #040202",
"(.	c #ED9F9F",
"_.	c #FAD0D1",
":.	c #FBD9D9",
"<.	c #F17170",
"[.	c #F17A7A",
"}.	c #F48B8B",
"|.	c #F49494",
"1.	c #F7AEAE",
"2.	c #F7B7B6",
"3.	c #FAC8C8",
"4.	c #FAD1D1",
"5.	c #FBD9DA",
"6.	c #FCE2E2",
"7.	c #F1797A",
"8.	c #F38382",
"9.	c #F49493",
"0.	c #F8B7B6",
"a.	c #F9BFC0",
"b.	c #F9C8C9",
"c.	c #FBDAD9",
"d.	c #FDEBEB",
"e.	c #F28283",
"f.	c #F59D9D",
"g.	c #F8BFC0",
"h.	c #F9C9C8",
"i.	c #FDF4F4",
"j.	c #F27A7A",
"k.	c #F38B8C",
"l.	c #F6A5A6",
"m.	c #F9C9C9",
"n.	c #FBD1D1",
"o.	c #FCDADA",
"p.	c #FDECEB",
"q.	c #FEF4F4",
"r.	c #FEFCFD",
"s.	c #F28383",
"t.	c #F49594",
"u.	c #F7AFAE",
"v.	c #F8B7B7",
"w.	c #F9C0C0",
"x.	c #FBD2D1",
"y.	c #FBDADA",
"z.	c #FCE3E3",
"A.	c #FFFDFD",
"B.	c #FFFFFF",
". . . + @ # $ % & * = - ; > , ' ",
") . + ! # ~ % { * ] ^ ; / , ( _ ",
". : < [ ~ } & | ] 1 ; / 2 3 4 5 ",
"+ 6 7 8 % 9 0 a b c d e ( f g h ",
"@ i 8 j k l l l l l l m n g o p ",
"7 q r k | s t u v w l x y z p A ",
"B % k C D ^ E F G H l I h J A K ",
"j L | D M N F G O P l Q J R S T ",
"U | V M W X G Y Z l `  .A ..+.@.",
"#.V $.%.F &.( *.l =.-.;...>.,.'.",
").M !.~.{.].^./.l (.;.K >.,._.:.",
"M %.<.[.].}.|.z J 1.2.>.3.4.5.6.",
"%.F 7.8.^.9.z l l 0.a.b.4.c.6.d.",
"~.[.e.^.9.f.J l l g.h.4.c.6.d.i.",
"j.].k.|.f.l.1.l l m.n.o.6.p.q.r.",
"s.}.t.f.l.u.v.w.m.x.y.z.p.q.A.B."};
